PathFileType	4	(X/Y/Z)	46_2_60_p1_0-886_filt_butterworth.trc
DataRate	CameraRate	NumFrames	NumMarkers	Units	OrigDataRate	OrigDataStartFrame	OrigNumFrames
59.0	59.0	5	27	m	59.0	110	886
Frame#	Time	RHip			RKnee			RAnkle			RBigToe			RSmallToe			RHeel			LHip			LKnee			LAnkle			LBigToe			LSmallToe			LHeel			Neck			Head			Nose			RShoulder			RElbow			RWrist			RThumb			RIndex			RPinky			LShoulder			LElbow			LWrist			LThumb			LIndex			LPinky			
		X1	Y1	Z1	X2	Y2	Z2	X3	Y3	Z3	X4	Y4	Z4	X5	Y5	Z5	X6	Y6	Z6	X7	Y7	Z7	X8	Y8	Z8	X9	Y9	Z9	X10	Y10	Z10	X11	Y11	Z11	X12	Y12	Z12	X13	Y13	Z13	X14	Y14	Z14	X15	Y15	Z15	X16	Y16	Z16	X17	Y17	Z17	X18	Y18	Z18	X19	Y19	Z19	X20	Y20	Z20	X21	Y21	Z21	X22	Y22	Z22	X23	Y23	Z23	X24	Y24	Z24	X25	Y25	Z25	X26	Y26	Z26	X27	Y27	Z27	
110	1.8644067796610169	0.38284296522719435	0.931568337586788	0.48643435362873216	0.3828732090508202	0.4521961296151641	0.5018959220759087	0.3740331482566412	0.029825843268268648	0.5170361614657282	0.3622950826446025	0.047558274433026446	0.3676522522618691	0.4127520028598135	0.07070563136492364	0.35077885775768086	0.34584052919239616	-0.041410964525132786	0.5974853649227013	0.1787754506389582	0.9346003483087862	0.4494653247746103	0.16416458934331876	0.4468459394275043	0.4977056634341945	0.15539443894250446	0.030951757915069752	0.49305392574753776	0.19476601183766204	0.06854169966095486	0.3079164091780472	0.1598708540915756	0.08384111681318897	0.31486771160899485	0.16277450688967102	-0.025121380334899187	0.5379726225154949	0.3002083112612434	1.430134820874967	0.48918152499886614	0.30311702313805716	1.6827994096951808	0.4876167068508238	0.3039000952757138	1.5613795163287574	0.4100549793937675	0.439229310012874	1.3406114814160532	0.5012936702326152	0.5607861247261111	1.1122468900623672	0.49564872084721057	0.5942721506235188	0.8955346243105031	0.3412174057468785	0.49729638502849716	0.8005171850139585	0.29018033994411263	0.5150569136853504	0.787127211986531	0.28311034552645953	0.5832650482651557	0.7929803968681958	0.2777101664496911	0.13266245350017275	1.3613654842748144	0.465722362110593	0.023113228647764366	1.1385039831196715	0.45349844579735	-0.056633683401814836	0.9645201713209768	0.32624028240911024	-0.036573881317743015	0.8804190620339982	0.23748306067976477	-0.058260996224248685	0.8637199458227927	0.19564139104880499	-0.09405381492072451	0.8110693044464762	0.32440957607235615	
111	1.88135593220339	0.38307309314360694	0.9317482221739419	0.48721409120473946	0.38255845721685017	0.4533798431828884	0.4999085943493155	0.37402227798079857	0.02971224257445207	0.517005573470609	0.3630984735320798	0.048061847042447266	0.36776022807299213	0.413655803875003	0.07188144395103695	0.348295641324402	0.34545797653195515	-0.041459167741009585	0.5980839108080465	0.17901362705517887	0.9355917354008735	0.44963435203909313	0.16420248890636607	0.446848525215551	0.49831291746080586	0.15542184692071032	0.03079449606735081	0.4929580848251575	0.1943851207754249	0.06997027394315872	0.30720710168464677	0.16034341519245587	0.08468954535604645	0.3139488300602411	0.1626860530136362	-0.025272379372958755	0.537306707806221	0.30019695623651543	1.4301747192289493	0.4891420557410048	0.30159308714122035	1.68266028531862	0.48904012071797665	0.3024504984625929	1.561957936726382	0.40974912340172265	0.43941441058667763	1.3408405377923847	0.5012822510432331	0.5605437414022524	1.1139467781716932	0.49581236275584883	0.5971882670594646	0.8951121850349785	0.34111362625107156	0.4988098611830041	0.7998397612126911	0.2924723483599043	0.5176996466858463	0.7866201520797194	0.2857228991396512	0.5843951739895646	0.7931436321017037	0.2775747213813048	0.1326674524582667	1.3611446900388053	0.46568102934720434	0.021415747160291224	1.1397561026095087	0.45539723716194025	-0.0617462295424397	0.9619195593910397	0.33238586119805746	-0.03919671582462191	0.8786168675900142	0.2390949792861137	-0.06048802183114879	0.8622945893335164	0.19495234854967908	-0.10118200047013753	0.8066775343642538	0.3334658908828627	
112	1.8983050847457628	0.3831333847947186	0.9311378812290357	0.48982370220701144	0.3823531689035892	0.45429655375380745	0.498634630185197	0.37411777414217867	0.02975589115451211	0.5170325953928944	0.3636502313043364	0.04820730771874767	0.3678038782372297	0.4141320161883423	0.07244378510097388	0.3472217345645074	0.3452309492759082	-0.041413043846140196	0.5986420215397589	0.17873964785084742	0.9356361858945453	0.4524753014159078	0.16397553309727955	0.4466146633840169	0.4994901880475115	0.15545527463777417	0.030640379482725445	0.49286613931695233	0.19430536698035838	0.07187380097865745	0.3068993862545911	0.16049509165680104	0.08491371171934974	0.31365760025436423	0.16264284701925655	-0.0253950764953982	0.5367727398665865	0.3001999077184912	1.4302448221804893	0.48906761347233085	0.30054008480285116	1.682611827389538	0.4898573028655492	0.3004968129238069	1.562769510363245	0.40937850062055686	0.4395602443756641	1.3410572440798278	0.5012687109077487	0.5606455201049049	1.11451438654368	0.49616582440564966	0.593976578763194	0.8943740891503307	0.33980702725045797	0.49690014339647576	0.8019695884777625	0.2901226628354636	0.5158807943133237	0.7876249270845506	0.2834827661524303	0.5822080644375125	0.7927938178510204	0.27583335320291474	0.13266193063208975	1.36091661001717	0.4656412030752926	0.020443640231301748	1.139759571141304	0.4558455526492029	-0.06265292147598585	0.9592788294157827	0.33519600349569645	-0.03757591739237025	0.8753361755908887	0.24109275709866204	-0.05952402730542547	0.8589114491513057	0.1986697963118336	-0.10244982379379983	0.8047137710365542	0.3343901746560764	
113	1.915254237288136	0.3830174740193406	0.9299424313383708	0.493555263512529	0.38223520042019077	0.4549370000017641	0.4979910890198409	0.3742807380377841	0.030016154458174238	0.517137142858018	0.36402408045922685	0.04791623445890361	0.36780371889268454	0.41409393267008465	0.07220514801797691	0.34804661089944655	0.34512952228063315	-0.04141647010267393	0.5991941108498097	0.17795336834869002	0.9348201144376984	0.45744432706856486	0.16350106552583388	0.4463163754187546	0.5012992065636355	0.15549681244717947	0.03051044237810025	0.4927886491368777	0.19449908843780686	0.07350389372526396	0.3070251633422085	0.16043362862240024	0.08467782625185362	0.313822073671895	0.16261717328003086	-0.0255145650055465	0.5363497590519858	0.3002625189190911	1.4303480858966524	0.4888692329689883	0.3000759026108897	1.6826610474774488	0.49015776993300797	0.2983729531465961	1.5634717606615	0.4089745863248014	0.4395349135736989	1.341116756765758	0.5011785510451227	0.5610803712196363	1.1136079966343124	0.49662080844481793	0.5854158284384128	0.8933221326282543	0.33803233769573215	0.4916204265447164	0.8059934646781409	0.2842982563588821	0.5096555395211119	0.7893695311791926	0.27784825989572315	0.5764941023592743	0.7920348974298193	0.2725579008275466	0.13265312240419352	1.3607773767611857	0.4656134349489612	0.020295304790737122	1.1386371527076642	0.45463742542064123	-0.059098514940437955	0.9573940978595445	0.33372005556792916	-0.03209110322461888	0.8707146749355366	0.24383082983811655	-0.055672282860885075	0.8540499396048207	0.20678428341842653	-0.09727648800412286	0.805204346814465	0.3271209965389673	
114	1.9322033898305084	0.3827861481290611	0.9284705789490736	0.49769531370182024	0.38215773446791235	0.4552655025246228	0.49787086958421634	0.3744469540209489	0.030501531131134345	0.5173127786248239	0.3641323280273311	0.04731336943131625	0.36788690148265024	0.4135853752953956	0.07132268692764031	0.35046991474392053	0.3450986451568301	-0.041635829182451733	0.5997772248162498	0.17677018781024406	0.9333440588473296	0.46386947082998425	0.1628795178393369	0.44608231445942564	0.5035464665282147	0.15553917060477165	0.03044928939374377	0.4927510276067114	0.19482186489342687	0.07463896765921915	0.30721195092162856	0.1603361479866398	0.08425065218193258	0.3141041529099666	0.16263628600485713	-0.025562149171517265	0.5360033900911413	0.3004017790868403	1.4304705272149376	0.48851300646168444	0.3000979756054002	1.68277321824373	0.49023169305680736	0.29644584725362333	1.563638770374643	0.4085449491891037	0.4392722668115963	1.3409044022102146	0.5010024691251446	0.5616869607831734	1.1111629667523097	0.4968565688022479	0.5729875252137299	0.8920769738842058	0.3370293472796863	0.4829979382619989	0.810151513636046	0.2774408917360429	0.4992457152150361	0.7911054659231698	0.27133046978371556	0.5667702302726694	0.7909973338037108	0.26883937159026605	0.1326509247086911	1.3607554931332408	0.46560309167406455	0.020939651718004736	1.1370254219953897	0.45286568458881127	-0.051704480939603295	0.9569878672218906	0.3284372346674165	-0.022516732012360704	0.8658582249443944	0.24667215441704432	-0.047924168041448056	0.84926173372381	0.21639781764380395	-0.08643252003431354	0.8077500548043866	0.3142447539805028	
